<?xml version="1.0" encoding="UTF-8"?>
<svg xmlns="http://www.w3.org/2000/svg" xmlns:xlink="http://www.w3.org/1999/xlink" width="35pt" height="35pt" viewBox="0 0 35 35" version="1.1">
<g id="surface1">
<path style=" stroke:none;fill-rule:nonzero;fill:rgb(100%,30.980392%,9.803922%);fill-opacity:1;" d="M 33.304688 8.191406 L 1.695312 8.191406 C 0.757812 8.191406 0 8.949219 0 9.882812 L 0 28.511719 C 0 29.445312 0.757812 30.207031 1.695312 30.207031 L 33.304688 30.207031 C 34.242188 30.207031 35 29.445312 35 28.511719 L 35 9.882812 C 35 8.949219 34.242188 8.191406 33.304688 8.191406 Z M 33.304688 8.191406 "/>
<path style=" stroke:none;fill-rule:nonzero;fill:rgb(89.019608%,0%,11.764706%);fill-opacity:1;" d="M 15.804688 27.382812 L 19.195312 27.382812 L 19.195312 30.207031 L 15.804688 30.207031 Z M 15.804688 27.382812 "/>
<path style=" stroke:none;fill-rule:nonzero;fill:rgb(90.196078%,74.509804%,54.117647%);fill-opacity:1;" d="M 32.757812 25.691406 L 32.757812 27.382812 C 32.757812 27.695312 32.503906 27.949219 32.191406 27.949219 L 2.839844 27.949219 C 2.527344 27.949219 2.273438 27.695312 2.273438 27.382812 L 2.273438 25.691406 L 5.644531 23.996094 L 19.195312 24.5625 L 30.484375 23.996094 Z M 32.757812 25.691406 "/>
<path style=" stroke:none;fill-rule:nonzero;fill:rgb(100%,92.156863%,71.764706%);fill-opacity:1;" d="M 3.066406 26.46875 C 7.703125 24.554688 12.949219 24.671875 17.515625 26.820312 L 17.515625 6.496094 C 12.800781 4.277344 7.359375 4.226562 2.609375 6.34375 C 2.40625 6.433594 2.273438 6.640625 2.273438 6.863281 L 2.273438 25.953125 C 2.273438 26.363281 2.6875 26.625 3.066406 26.46875 Z M 3.066406 26.46875 "/>
<path style=" stroke:none;fill-rule:nonzero;fill:rgb(100%,84.313725%,53.333333%);fill-opacity:1;" d="M 17.515625 26.820312 C 22.082031 24.671875 27.328125 24.554688 31.964844 26.46875 C 32.34375 26.625 32.757812 26.363281 32.757812 25.953125 L 32.757812 6.863281 C 32.757812 6.640625 32.625 6.433594 32.421875 6.34375 C 27.671875 4.226562 22.230469 4.277344 17.515625 6.496094 Z M 17.515625 26.820312 "/>
<path style=" stroke:none;fill-rule:nonzero;fill:rgb(52.54902%,51.764706%,56.862745%);fill-opacity:1;" d="M 19.773438 23.132812 C 19.53125 23.132812 19.308594 22.976562 19.234375 22.738281 C 19.140625 22.441406 19.308594 22.121094 19.605469 22.03125 C 20.175781 21.851562 20.761719 21.695312 21.351562 21.574219 C 21.65625 21.507812 21.957031 21.703125 22.019531 22.011719 C 22.082031 22.316406 21.886719 22.613281 21.582031 22.679688 C 21.03125 22.792969 20.480469 22.9375 19.941406 23.105469 C 19.886719 23.125 19.828125 23.132812 19.773438 23.132812 Z M 19.773438 23.132812 "/>
<path style=" stroke:none;fill-rule:nonzero;fill:rgb(52.54902%,51.764706%,56.862745%);fill-opacity:1;" d="M 30.5 23.132812 C 30.445312 23.132812 30.386719 23.125 30.332031 23.105469 C 28.199219 22.4375 25.992188 22.1875 23.769531 22.363281 C 23.453125 22.386719 23.1875 22.15625 23.164062 21.847656 C 23.136719 21.535156 23.371094 21.261719 23.679688 21.238281 C 26.050781 21.050781 28.402344 21.316406 30.667969 22.03125 C 30.964844 22.121094 31.132812 22.441406 31.039062 22.738281 C 30.960938 22.976562 30.738281 23.132812 30.5 23.132812 Z M 30.5 23.132812 "/>
<path style=" stroke:none;fill-rule:nonzero;fill:rgb(52.54902%,51.764706%,56.862745%);fill-opacity:1;" d="M 30.5 20.867188 C 30.445312 20.867188 30.386719 20.859375 30.332031 20.84375 C 26.933594 19.773438 23.339844 19.773438 19.941406 20.84375 C 19.644531 20.933594 19.328125 20.769531 19.234375 20.472656 C 19.140625 20.175781 19.308594 19.859375 19.605469 19.765625 C 23.222656 18.628906 27.050781 18.628906 30.667969 19.765625 C 30.964844 19.859375 31.132812 20.175781 31.039062 20.472656 C 30.960938 20.714844 30.738281 20.867188 30.5 20.867188 Z M 30.5 20.867188 "/>
<path style=" stroke:none;fill-rule:nonzero;fill:rgb(52.54902%,51.764706%,56.862745%);fill-opacity:1;" d="M 19.773438 18.617188 C 19.53125 18.617188 19.308594 18.460938 19.234375 18.222656 C 19.140625 17.921875 19.308594 17.605469 19.605469 17.511719 C 21.683594 16.859375 23.839844 16.582031 26.011719 16.683594 C 26.320312 16.699219 26.5625 16.964844 26.546875 17.277344 C 26.53125 17.589844 26.273438 17.828125 25.957031 17.8125 C 23.917969 17.71875 21.894531 17.976562 19.941406 18.589844 C 19.886719 18.609375 19.828125 18.617188 19.773438 18.617188 Z M 19.773438 18.617188 "/>
<path style=" stroke:none;fill-rule:nonzero;fill:rgb(52.54902%,51.764706%,56.862745%);fill-opacity:1;" d="M 30.5 18.617188 C 30.445312 18.617188 30.386719 18.609375 30.332031 18.589844 C 29.617188 18.367188 28.878906 18.1875 28.144531 18.054688 C 27.835938 18.003906 27.628906 17.710938 27.683594 17.402344 C 27.738281 17.09375 28.03125 16.890625 28.339844 16.945312 C 29.125 17.082031 29.910156 17.273438 30.667969 17.511719 C 30.964844 17.605469 31.132812 17.921875 31.039062 18.222656 C 30.960938 18.460938 30.738281 18.617188 30.5 18.617188 Z M 30.5 18.617188 "/>
<path style=" stroke:none;fill-rule:nonzero;fill:rgb(52.54902%,51.764706%,56.862745%);fill-opacity:1;" d="M 30.5 16.351562 C 30.445312 16.351562 30.386719 16.34375 30.332031 16.324219 C 26.933594 15.257812 23.339844 15.257812 19.941406 16.324219 C 19.644531 16.417969 19.328125 16.253906 19.234375 15.957031 C 19.140625 15.660156 19.308594 15.34375 19.605469 15.25 C 23.222656 14.113281 27.050781 14.113281 30.667969 15.25 C 30.964844 15.34375 31.132812 15.660156 31.039062 15.957031 C 30.960938 16.199219 30.738281 16.351562 30.5 16.351562 Z M 30.5 16.351562 "/>
<path style=" stroke:none;fill-rule:nonzero;fill:rgb(52.54902%,51.764706%,56.862745%);fill-opacity:1;" d="M 19.773438 14.09375 C 19.53125 14.09375 19.308594 13.941406 19.234375 13.699219 C 19.140625 13.402344 19.308594 13.085938 19.605469 12.992188 C 20.738281 12.632812 21.914062 12.386719 23.097656 12.253906 C 23.414062 12.21875 23.6875 12.445312 23.722656 12.753906 C 23.757812 13.0625 23.53125 13.34375 23.222656 13.378906 C 22.113281 13.5 21.007812 13.734375 19.941406 14.066406 C 19.886719 14.085938 19.828125 14.09375 19.773438 14.09375 Z M 19.773438 14.09375 "/>
<path style=" stroke:none;fill-rule:nonzero;fill:rgb(52.54902%,51.764706%,56.862745%);fill-opacity:1;" d="M 30.5 14.09375 C 30.445312 14.09375 30.386719 14.085938 30.332031 14.066406 C 28.738281 13.566406 27.082031 13.300781 25.410156 13.273438 C 25.097656 13.269531 24.851562 13.011719 24.855469 12.699219 C 24.859375 12.386719 25.132812 12.125 25.429688 12.144531 C 27.207031 12.171875 28.972656 12.457031 30.667969 12.992188 C 30.964844 13.082031 31.132812 13.402344 31.039062 13.699219 C 30.960938 13.941406 30.738281 14.09375 30.5 14.09375 Z M 30.5 14.09375 "/>
<path style=" stroke:none;fill-rule:nonzero;fill:rgb(52.54902%,51.764706%,56.862745%);fill-opacity:1;" d="M 19.773438 11.84375 C 19.53125 11.84375 19.308594 11.6875 19.234375 11.445312 C 19.140625 11.148438 19.308594 10.832031 19.605469 10.738281 C 22.0625 9.964844 24.609375 9.71875 27.175781 10.003906 C 27.484375 10.039062 27.707031 10.316406 27.671875 10.625 C 27.640625 10.9375 27.367188 11.164062 27.050781 11.125 C 24.644531 10.859375 22.253906 11.089844 19.941406 11.816406 C 19.886719 11.832031 19.828125 11.84375 19.773438 11.84375 Z M 19.773438 11.84375 "/>
<path style=" stroke:none;fill-rule:nonzero;fill:rgb(52.54902%,51.764706%,56.862745%);fill-opacity:1;" d="M 30.5 11.84375 C 30.445312 11.84375 30.386719 11.832031 30.332031 11.816406 C 29.972656 11.703125 29.605469 11.601562 29.238281 11.511719 C 28.933594 11.4375 28.746094 11.132812 28.820312 10.828125 C 28.894531 10.527344 29.199219 10.339844 29.503906 10.414062 C 29.894531 10.511719 30.285156 10.617188 30.667969 10.738281 C 30.964844 10.832031 31.132812 11.148438 31.039062 11.445312 C 30.960938 11.6875 30.738281 11.84375 30.5 11.84375 Z M 30.5 11.84375 "/>
<path style=" stroke:none;fill-rule:nonzero;fill:rgb(52.54902%,51.764706%,56.862745%);fill-opacity:1;" d="M 19.773438 9.578125 C 19.53125 9.578125 19.308594 9.421875 19.234375 9.183594 C 19.140625 8.882812 19.308594 8.566406 19.605469 8.472656 C 19.992188 8.351562 20.382812 8.242188 20.769531 8.148438 C 21.070312 8.074219 21.375 8.261719 21.449219 8.566406 C 21.523438 8.867188 21.339844 9.171875 21.035156 9.246094 C 20.675781 9.335938 20.308594 9.4375 19.941406 9.550781 C 19.886719 9.570312 19.828125 9.578125 19.773438 9.578125 Z M 19.773438 9.578125 "/>
<path style=" stroke:none;fill-rule:nonzero;fill:rgb(52.54902%,51.764706%,56.862745%);fill-opacity:1;" d="M 30.5 9.578125 C 30.445312 9.578125 30.386719 9.570312 30.332031 9.550781 C 28.019531 8.824219 25.628906 8.59375 23.222656 8.859375 C 22.910156 8.898438 22.632812 8.671875 22.597656 8.363281 C 22.566406 8.050781 22.789062 7.773438 23.097656 7.738281 C 25.660156 7.453125 28.207031 7.703125 30.667969 8.472656 C 30.964844 8.566406 31.132812 8.886719 31.039062 9.183594 C 30.960938 9.421875 30.738281 9.578125 30.5 9.578125 Z M 30.5 9.578125 "/>
<path style=" stroke:none;fill-rule:nonzero;fill:rgb(70.588235%,71.372549%,73.72549%);fill-opacity:1;" d="M 4.53125 23.132812 C 4.292969 23.132812 4.070312 22.976562 3.992188 22.738281 C 3.898438 22.441406 4.066406 22.121094 4.363281 22.03125 C 4.933594 21.851562 5.519531 21.695312 6.109375 21.574219 C 6.414062 21.507812 6.714844 21.703125 6.777344 22.011719 C 6.839844 22.316406 6.644531 22.613281 6.339844 22.679688 C 5.789062 22.792969 5.238281 22.9375 4.699219 23.105469 C 4.644531 23.125 4.585938 23.132812 4.53125 23.132812 Z M 4.53125 23.132812 "/>
<path style=" stroke:none;fill-rule:nonzero;fill:rgb(70.588235%,71.372549%,73.72549%);fill-opacity:1;" d="M 15.257812 23.132812 C 15.203125 23.132812 15.144531 23.125 15.089844 23.105469 C 12.957031 22.4375 10.75 22.1875 8.527344 22.363281 C 8.207031 22.386719 7.945312 22.15625 7.921875 21.847656 C 7.894531 21.535156 8.128906 21.261719 8.4375 21.238281 C 10.808594 21.050781 13.15625 21.316406 15.425781 22.03125 C 15.722656 22.121094 15.890625 22.441406 15.796875 22.738281 C 15.71875 22.976562 15.496094 23.132812 15.257812 23.132812 Z M 15.257812 23.132812 "/>
<path style=" stroke:none;fill-rule:nonzero;fill:rgb(70.588235%,71.372549%,73.72549%);fill-opacity:1;" d="M 15.257812 20.867188 C 15.203125 20.867188 15.144531 20.859375 15.089844 20.84375 C 11.691406 19.773438 8.097656 19.773438 4.699219 20.84375 C 4.402344 20.933594 4.085938 20.769531 3.992188 20.472656 C 3.898438 20.175781 4.066406 19.859375 4.363281 19.765625 C 7.980469 18.628906 11.808594 18.628906 15.425781 19.765625 C 15.722656 19.859375 15.890625 20.175781 15.796875 20.472656 C 15.71875 20.714844 15.496094 20.867188 15.257812 20.867188 Z M 15.257812 20.867188 "/>
<path style=" stroke:none;fill-rule:nonzero;fill:rgb(70.588235%,71.372549%,73.72549%);fill-opacity:1;" d="M 4.53125 18.617188 C 4.292969 18.617188 4.070312 18.460938 3.992188 18.222656 C 3.898438 17.921875 4.066406 17.605469 4.363281 17.511719 C 6.441406 16.859375 8.597656 16.582031 10.769531 16.683594 C 11.078125 16.699219 11.320312 16.964844 11.304688 17.277344 C 11.289062 17.589844 11.027344 17.828125 10.714844 17.8125 C 8.675781 17.71875 6.652344 17.976562 4.699219 18.589844 C 4.644531 18.609375 4.585938 18.617188 4.53125 18.617188 Z M 4.53125 18.617188 "/>
<path style=" stroke:none;fill-rule:nonzero;fill:rgb(70.588235%,71.372549%,73.72549%);fill-opacity:1;" d="M 15.257812 18.617188 C 15.203125 18.617188 15.144531 18.609375 15.089844 18.589844 C 14.375 18.367188 13.640625 18.1875 12.902344 18.054688 C 12.59375 18.003906 12.386719 17.710938 12.441406 17.402344 C 12.496094 17.09375 12.792969 16.890625 13.097656 16.945312 C 13.882812 17.082031 14.667969 17.273438 15.425781 17.511719 C 15.722656 17.605469 15.890625 17.921875 15.796875 18.222656 C 15.71875 18.460938 15.496094 18.617188 15.257812 18.617188 Z M 15.257812 18.617188 "/>
<path style=" stroke:none;fill-rule:nonzero;fill:rgb(70.588235%,71.372549%,73.72549%);fill-opacity:1;" d="M 4.53125 16.351562 C 4.292969 16.351562 4.070312 16.199219 3.992188 15.957031 C 3.898438 15.660156 4.066406 15.34375 4.363281 15.25 C 7.570312 14.242188 10.996094 14.128906 14.261719 14.925781 C 14.566406 15 14.75 15.304688 14.675781 15.605469 C 14.601562 15.910156 14.296875 16.09375 13.996094 16.019531 C 10.925781 15.273438 7.714844 15.378906 4.699219 16.324219 C 4.644531 16.34375 4.585938 16.351562 4.53125 16.351562 Z M 4.53125 16.351562 "/>
<path style=" stroke:none;fill-rule:nonzero;fill:rgb(70.588235%,71.372549%,73.72549%);fill-opacity:1;" d="M 4.53125 14.09375 C 4.292969 14.09375 4.070312 13.941406 3.992188 13.699219 C 3.898438 13.402344 4.066406 13.085938 4.363281 12.992188 C 5.496094 12.632812 6.671875 12.386719 7.855469 12.253906 C 8.167969 12.21875 8.445312 12.445312 8.480469 12.753906 C 8.515625 13.0625 8.292969 13.34375 7.980469 13.378906 C 6.871094 13.5 5.765625 13.734375 4.699219 14.066406 C 4.644531 14.085938 4.585938 14.09375 4.53125 14.09375 Z M 4.53125 14.09375 "/>
<path style=" stroke:none;fill-rule:nonzero;fill:rgb(70.588235%,71.372549%,73.72549%);fill-opacity:1;" d="M 14.128906 13.78125 C 14.085938 13.78125 14.039062 13.773438 13.996094 13.761719 C 12.742188 13.457031 11.457031 13.292969 10.167969 13.273438 C 9.855469 13.269531 9.609375 13.011719 9.613281 12.699219 C 9.617188 12.386719 9.863281 12.125 10.1875 12.144531 C 11.558594 12.167969 12.929688 12.339844 14.261719 12.667969 C 14.566406 12.738281 14.75 13.046875 14.675781 13.347656 C 14.613281 13.605469 14.382812 13.78125 14.128906 13.78125 Z M 14.128906 13.78125 "/>
<path style=" stroke:none;fill-rule:nonzero;fill:rgb(70.588235%,71.372549%,73.72549%);fill-opacity:1;" d="M 4.53125 11.84375 C 4.292969 11.84375 4.070312 11.6875 3.992188 11.445312 C 3.898438 11.148438 4.066406 10.832031 4.363281 10.738281 C 6.824219 9.964844 9.367188 9.71875 11.933594 10.003906 C 12.242188 10.039062 12.464844 10.316406 12.429688 10.625 C 12.398438 10.9375 12.121094 11.164062 11.808594 11.125 C 9.402344 10.859375 7.011719 11.089844 4.699219 11.816406 C 4.644531 11.832031 4.585938 11.84375 4.53125 11.84375 Z M 4.53125 11.84375 "/>
<path style=" stroke:none;fill-rule:nonzero;fill:rgb(70.588235%,71.372549%,73.72549%);fill-opacity:1;" d="M 4.53125 9.578125 C 4.292969 9.578125 4.070312 9.421875 3.992188 9.183594 C 3.898438 8.882812 4.066406 8.566406 4.363281 8.472656 C 4.75 8.351562 5.140625 8.242188 5.527344 8.148438 C 5.828125 8.074219 6.132812 8.261719 6.207031 8.566406 C 6.28125 8.867188 6.097656 9.171875 5.792969 9.246094 C 5.433594 9.335938 5.066406 9.4375 4.699219 9.550781 C 4.644531 9.570312 4.585938 9.578125 4.53125 9.578125 Z M 4.53125 9.578125 "/>
<path style=" stroke:none;fill-rule:nonzero;fill:rgb(70.588235%,71.372549%,73.72549%);fill-opacity:1;" d="M 14.128906 9.261719 C 14.085938 9.261719 14.039062 9.257812 13.996094 9.246094 C 12.023438 8.765625 10 8.636719 7.980469 8.859375 C 7.671875 8.898438 7.390625 8.671875 7.359375 8.363281 C 7.324219 8.050781 7.546875 7.773438 7.855469 7.738281 C 10.003906 7.5 12.160156 7.636719 14.261719 8.148438 C 14.566406 8.222656 14.75 8.527344 14.675781 8.832031 C 14.613281 9.089844 14.382812 9.261719 14.128906 9.261719 Z M 14.128906 9.261719 "/>
<path style=" stroke:none;fill-rule:nonzero;fill:rgb(36.470588%,39.215686%,49.803922%);fill-opacity:1;" d="M 14.128906 15.246094 C 14.128906 15.472656 14.378906 15.605469 14.566406 15.480469 L 15.820312 14.644531 L 17.078125 15.480469 C 17.265625 15.605469 17.515625 15.472656 17.515625 15.246094 L 17.515625 6.542969 C 17.515625 6.320312 17.386719 6.113281 17.179688 6.023438 C 16.300781 5.632812 15.398438 5.320312 14.480469 5.078125 C 14.300781 5.03125 14.125 5.167969 14.125 5.355469 Z M 14.128906 15.246094 "/>
</g>
</svg>
